<svg width="713" height="156" viewBox="0 0 713 156" fill="none" xmlns="http://www.w3.org/2000/svg">
<path d="M641.698 96.9775C641.698 97.7578 641.252 98.3151 640.36 98.6495C639.023 99.2069 637.072 99.8757 634.508 100.656C631.944 101.325 629.325 101.994 626.65 102.662C623.974 103.22 621.856 103.666 620.296 104C622.525 107.901 624.922 111.636 627.486 115.203C630.049 118.77 632.557 122.337 635.01 125.904C635.233 126.349 635.344 126.684 635.344 126.907C635.344 127.687 635.01 128.3 634.341 128.746C633.784 129.192 633.171 129.415 632.502 129.415C631.498 129.415 629.882 128.746 627.653 127.408C625.423 126.071 623.25 124.622 621.132 123.061C619.014 121.501 617.509 120.386 616.617 119.717C611.936 128.523 606.362 135.323 599.897 140.116C593.543 145.02 585.295 148.141 575.151 149.479L575.318 114.032C574.204 115.147 572.476 116.484 570.135 118.045C567.794 119.606 565.286 121.11 562.611 122.56C559.936 124.009 557.316 125.235 554.753 126.238C552.3 127.13 550.238 127.576 548.566 127.576C548.232 127.576 547.841 127.52 547.396 127.408C547.061 127.297 546.894 127.018 546.894 126.572C546.894 126.015 547.117 125.569 547.563 125.235C548.009 124.789 548.455 124.399 548.9 124.064C553.248 120.497 557.595 116.429 561.942 111.859C566.289 107.177 570.414 102.328 574.315 97.3119C578.328 92.1844 581.728 87.224 584.515 82.4309H555.589V74.7396H590.032V60.3601H608.592V74.7396H622.47C622.692 72.5102 623.529 70.7267 624.978 69.3891C626.538 68.0515 628.377 67.3827 630.495 67.3827C632.39 67.3827 634.229 68.1072 636.013 69.5563C637.908 71.0054 638.855 72.6774 638.855 74.5724C638.855 77.3591 638.019 79.3655 636.347 80.5917C634.787 81.8178 632.725 82.4309 630.161 82.4309H608.09C605.861 85.2176 603.576 88.06 601.235 90.9582C598.894 93.7449 596.442 96.4202 593.878 98.9839V126.405C596.776 124.733 599.563 122.894 602.238 120.887C605.025 118.881 607.588 116.652 609.929 114.199C609.483 113.754 608.536 112.806 607.087 111.357C605.638 109.908 604.244 108.459 602.907 107.01C601.569 105.561 600.9 104.669 600.9 104.334C600.9 104 601.123 103.721 601.569 103.498C602.572 102.83 603.631 102.161 604.746 101.492C605.861 100.823 606.92 100.154 607.923 99.4855C611.601 97.1447 615.28 94.7481 618.958 92.2958C622.748 89.7321 626.315 87.0568 629.659 84.2701C630.44 84.9389 631.666 86.0536 633.338 87.6142C635.01 89.0632 636.626 90.5123 638.187 91.9614C639.747 93.4105 640.75 94.5252 641.196 95.3055C641.531 95.7514 641.698 96.3087 641.698 96.9775ZM712.257 143.125C712.257 146.024 711.087 148.364 708.746 150.148C706.517 152.043 704.009 152.99 701.222 152.99C696.763 152.99 692.583 151.764 688.682 149.312C685.561 147.305 682.44 144.797 679.318 141.788C676.309 138.778 673.411 135.601 670.624 132.257C667.837 128.802 665.385 125.569 663.267 122.56C659.589 126.461 655.631 130.139 651.396 133.595C647.16 136.939 642.59 139.893 637.685 142.457C635.679 143.46 633.115 144.575 629.994 145.801C626.984 147.027 623.919 148.03 620.797 148.81C617.676 149.702 615.001 150.148 612.772 150.148C612.437 150.148 611.991 150.092 611.434 149.981C610.988 149.869 610.765 149.535 610.765 148.978C610.765 148.532 611.044 148.142 611.601 147.807C613.162 146.915 614.722 146.024 616.283 145.132C617.844 144.24 619.348 143.237 620.797 142.122C627.486 137.552 633.728 132.257 639.524 126.238C645.321 120.219 650.337 113.809 654.572 107.01C652.009 102.439 649.835 97.3677 648.052 91.7942C646.268 86.1093 644.819 80.313 643.704 74.4052C642.59 68.4973 641.698 62.9797 641.029 57.8521H553.582V50.1608H589.865V32.9389H564.283V25.2476H589.531V0.501616H609.428V25.2476H616.45C616.673 23.2412 617.621 21.5691 619.293 20.2315C620.965 18.7824 622.804 18.0579 624.81 18.0579C626.371 18.0579 628.099 18.7824 629.994 20.2315C631.889 21.6806 632.836 23.2969 632.836 25.0804C632.836 27.8671 632 29.8735 630.328 31.0997C628.768 32.3258 626.705 32.9389 624.142 32.9389H609.093V50.1608H639.859C638.187 33.8864 637.351 17.5563 637.351 1.17043H657.749C657.749 17.5563 658.251 33.8864 659.254 50.1608H688.682C688.682 47.597 689.629 45.2562 691.524 43.1383C693.419 41.0204 695.704 39.9614 698.38 39.9614C701.055 39.9614 703.451 40.7417 705.569 42.3023C707.799 43.7514 708.913 45.925 708.913 48.8232C708.913 51.8328 707.966 54.1179 706.071 55.6785C704.176 57.1276 701.779 57.8521 698.881 57.8521H660.09C660.647 62.9797 661.372 68.0515 662.264 73.0675C663.155 78.0836 664.326 83.044 665.775 87.9486H666.109C669.565 79.6999 672.575 71.0611 675.138 62.0322L693.029 71.3955C693.475 71.6185 693.698 72.1201 693.698 72.9003C693.698 73.1233 693.642 73.402 693.531 73.7364C693.419 74.0708 693.308 74.3494 693.196 74.5724C690.744 80.3687 688.013 86.0536 685.003 91.627C681.994 97.089 678.65 102.328 674.971 107.344C677.423 112.806 680.154 118.435 683.164 124.232C686.174 129.916 689.573 135.1 693.363 139.781C694.255 138.109 695.537 136.716 697.209 135.601C698.993 134.487 700.832 133.929 702.727 133.929C705.291 133.929 707.52 134.821 709.415 136.605C711.31 138.388 712.257 140.562 712.257 143.125ZM697.209 15.7171C697.209 16.4973 696.819 17.2776 696.039 18.0579C695.37 18.8382 694.757 19.507 694.199 20.0643C691.19 22.7396 687.679 25.6377 683.666 28.7589C679.653 31.88 675.919 34.5552 672.463 36.7846C671.571 37.3419 670.624 37.8435 669.621 38.2894C668.617 38.7353 667.558 38.9582 666.444 38.9582C665.106 38.9582 664.437 38.3451 664.437 37.119C664.437 36.2272 664.66 35.3355 665.106 34.4437C667.224 29.7621 669.119 24.9689 670.791 20.0643C672.463 15.0482 673.968 10.0879 675.306 5.1833C678.315 6.07504 681.882 7.35693 686.007 9.02896C690.131 10.701 693.475 12.373 696.039 14.045C696.819 14.6024 697.209 15.1597 697.209 15.7171Z" fill="#000967"/>
<path d="M541.711 50.4952C541.711 53.6163 540.652 56.0686 538.534 57.8521C536.416 59.6356 533.852 60.5273 530.843 60.5273H481.685C477.003 64.9861 472.099 69.2219 466.971 73.2347C461.844 77.1361 456.493 80.7588 450.92 84.1029L449.916 88.283C458.722 86.2765 467.473 83.8242 476.167 80.926C484.862 77.9164 493.222 74.4051 501.248 70.3923C504.034 71.9528 506.821 73.6806 509.608 75.5756C512.506 77.4705 515.125 79.477 517.466 81.5948C517.912 81.9293 518.302 82.3194 518.637 82.7653C518.971 83.2111 519.138 83.7127 519.138 84.2701C519.138 85.1618 518.525 85.8306 517.299 86.2765C514.401 87.3912 511.057 88.2272 507.267 88.7846C503.477 89.2304 499.966 89.732 496.733 90.2894C488.707 91.4041 480.682 92.3515 472.656 93.1318C464.63 93.8006 456.549 94.358 448.412 94.8039L446.405 105.338L511.781 103.164C511.224 106.954 510.332 111.19 509.106 115.871C507.991 120.442 506.487 125.123 504.592 129.916C502.808 134.598 500.579 138.89 497.904 142.791C495.228 146.804 492.052 149.981 488.373 152.322C484.695 154.774 480.459 156 475.666 156C472.21 156 468.532 155.331 464.63 153.994C460.729 152.656 457.273 151.207 454.264 149.646C453.595 149.2 452.202 148.309 450.084 146.971C448.077 145.745 445.904 144.296 443.563 142.624C441.222 141.063 439.215 139.558 437.543 138.109C435.871 136.66 435.035 135.546 435.035 134.765C435.035 133.762 435.704 133.26 437.042 133.26C441.278 134.932 445.848 136.605 450.752 138.277C455.769 139.837 460.506 140.617 464.965 140.617C468.532 140.617 471.541 140.06 473.994 138.945C476.446 137.831 478.564 135.713 480.347 132.592C482.242 129.582 483.803 126.015 485.029 121.891C486.367 117.655 487.426 113.809 488.206 110.354L424.502 112.862L428.013 96.8103C424.112 99.0397 419.486 101.325 414.135 103.666C408.896 106.006 403.49 108.013 397.916 109.685C392.455 111.245 387.494 112.026 383.035 112.026C382.59 112.026 382.032 111.97 381.363 111.859C380.806 111.747 380.527 111.301 380.527 110.521C380.527 110.186 380.695 109.852 381.029 109.518C381.363 109.183 381.642 108.96 381.865 108.849C382.757 108.292 383.649 107.846 384.54 107.511C385.543 107.177 386.491 106.787 387.383 106.341C390.615 104.78 393.848 103.164 397.08 101.492C407.224 96.1415 417.479 90.0107 427.846 83.0997C438.212 76.1886 447.408 68.6645 455.434 60.5273H386.881V52.5016H440.888V30.9325H406.277V23.2412H440.888V0H461.453V23.2412H467.306C467.417 21.0118 468.309 19.2283 469.981 17.8907C471.764 16.4416 473.715 15.717 475.833 15.717C478.062 15.717 479.846 16.6088 481.183 18.3923C482.521 20.0643 483.19 21.9035 483.19 23.91C483.19 25.6935 482.354 27.3097 480.682 28.7588C479.01 30.2079 477.338 30.9325 475.666 30.9325H461.453V52.5016H463.627C470.315 45.8135 476.502 38.3451 482.187 30.0965C487.983 21.8478 493.055 13.4877 497.402 5.01607L518.135 19.2283C513.788 25.1361 509.162 30.8767 504.257 36.4502C499.353 41.9121 494.281 47.2626 489.042 52.5016H519.473C519.473 49.492 520.532 46.7052 522.65 44.1415C524.767 41.4662 527.387 40.1286 530.508 40.1286C533.406 40.1286 535.97 41.1318 538.199 43.1383C540.54 45.0332 541.711 47.4855 541.711 50.4952Z" fill="#000967"/>
<path d="M284.887 99.4855V80.09H260.81V99.4855H284.887ZM284.887 71.8971V52.1672H260.81V71.8971H284.887ZM328.695 99.4855V52.1672H304.45V71.8971H311.138C311.473 70.3366 312.42 69.1104 313.981 68.2187C315.541 67.3269 317.046 66.8811 318.495 66.8811C320.279 66.8811 321.839 67.6056 323.177 69.0547C324.626 70.3923 325.351 71.9529 325.351 73.7364C325.351 75.5199 324.626 77.0247 323.177 78.2508C321.728 79.477 320.111 80.09 318.328 80.09H304.45V99.4855H328.695ZM378.019 98.3151C378.019 100.99 377.183 103.331 375.511 105.338C373.839 107.233 371.61 108.18 368.823 108.18H349.093V125.402C349.093 128.969 348.926 132.536 348.592 136.103C348.369 139.558 347.644 142.68 346.418 145.466C345.303 148.364 343.408 150.65 340.733 152.322C338.169 154.105 334.602 154.997 330.032 154.997C327.468 154.997 324.236 154.217 320.334 152.656C316.545 151.207 312.866 149.423 309.299 147.305C305.732 145.188 303.057 143.237 301.273 141.453C301.162 141.23 300.995 141.008 300.772 140.785C300.549 140.562 300.437 140.283 300.437 139.949C300.437 139.614 300.605 139.391 300.939 139.28C301.273 139.28 301.552 139.28 301.775 139.28C301.998 139.28 302.165 139.28 302.277 139.28C302.388 139.28 302.499 139.28 302.611 139.28C305.398 139.726 308.129 140.116 310.804 140.45C313.591 140.896 316.377 141.119 319.164 141.119C322.285 141.119 324.459 140.394 325.685 138.945C327.023 137.385 327.859 135.434 328.193 133.093C328.527 130.752 328.695 128.412 328.695 126.071V108.18H260.81V153.158H240.746V108.18H216V99.4855H240.746V43.6399H284.386V21.7363H226.701V13.3762L345.582 13.5434C345.805 10.9796 346.975 8.52734 349.093 6.18651C351.211 3.7342 353.608 2.50805 356.283 2.50805C358.847 2.50805 361.411 3.34406 363.974 5.01609C366.65 6.68812 367.987 8.97322 367.987 11.8714C367.987 14.3237 367.095 16.6088 365.312 18.7267C363.64 20.7331 361.522 21.7363 358.958 21.7363H304.785V43.6399H349.093V99.4855H358.289C358.735 97.0332 359.794 94.8039 361.466 92.7974C363.138 90.791 365.312 89.7878 367.987 89.7878C370.217 89.7878 372.446 90.6238 374.675 92.2958C376.905 93.9679 378.019 95.9743 378.019 98.3151Z" fill="#000967"/>
<path d="M180 136V156H0V136H180Z" fill="#000967"/>
<path d="M110 0C110 9.59519 108.742 19.1274 106.279 28.3584C104.894 29.6089 103.54 30.8965 102.218 32.2188C92.0035 42.4331 83.901 54.5597 78.373 67.9053C76.5171 72.3859 74.9647 76.9749 73.7197 81.6406C64.4067 90.0501 53.7129 96.8145 42.0947 101.627C28.749 107.155 14.4452 110 0 110V0H110ZM180 110H70C70 100.405 71.2565 90.8719 73.7197 81.6406C75.1046 80.3902 76.46 79.1045 77.7822 77.7822C87.9967 67.5678 96.0989 55.4405 101.627 42.0947C103.483 37.6139 105.034 33.0244 106.279 28.3584C115.592 19.9489 126.287 13.1855 137.905 8.37305C151.251 2.84516 165.555 -1.72258e-07 180 0V110Z" fill="#000967"/>
</svg>
